<svg width="69" height="64" viewBox="0 0 69 64" fill="none" xmlns="http://www.w3.org/2000/svg">
<path d="M65 34C65 50.5685 51.5685 64 35 64C18.4315 64 5 50.5685 5 34C5 17.4315 18.4315 4 35 4C51.5685 4 65 17.4315 65 34ZM6.39114 34C6.39114 49.8002 19.1998 62.6089 35 62.6089C50.8002 62.6089 63.6089 49.8002 63.6089 34C63.6089 18.1998 50.8002 5.39114 35 5.39114C19.1998 5.39114 6.39114 18.1998 6.39114 34Z" fill="#E0E4E6"/>
<path d="M52.9624 37.2046C53.2313 37.243 53.6058 37.3102 54.0859 37.4062C54.5661 37.4831 55.0846 37.6271 55.6416 37.8384C56.2178 38.0496 56.7939 38.3473 57.3701 38.7314C57.9655 39.0964 58.5033 39.5957 58.9834 40.2295C59.4635 40.8633 59.8477 41.6411 60.1357 42.563C60.443 43.4849 60.5967 44.5892 60.5967 45.876C60.5967 47.278 60.3374 48.6512 59.8188 49.9956C59.3003 51.34 58.5801 52.5404 57.6582 53.5967C56.7363 54.6338 55.6416 55.4692 54.374 56.103C53.1064 56.756 51.7332 57.0825 50.2544 57.0825C48.7179 57.0825 47.3831 56.8424 46.25 56.3623C45.1361 55.9014 44.2142 55.2388 43.4844 54.3745C42.7738 53.5295 42.2456 52.5116 41.8999 51.3208C41.5542 50.1108 41.3813 48.776 41.3813 47.3164C41.3813 45.7607 41.6406 43.7537 42.1592 41.2954C42.6777 38.8371 43.638 36.0138 45.04 32.8257C42.8314 33.7284 40.6419 34.5446 38.4717 35.2744C36.3206 35.985 34.1696 36.6572 32.0186 37.291C30.8854 39.0387 29.6274 40.7576 28.2446 42.4478C26.8618 44.1187 25.4118 45.6935 23.8945 47.1724C22.3965 48.6512 20.8504 50.0148 19.2563 51.2632C17.6623 52.4924 16.0874 53.5583 14.5317 54.4609C12.9761 55.3636 11.4588 56.0646 9.97998 56.564C8.52035 57.0633 7.15674 57.313 5.88916 57.313C4.75602 57.313 3.83415 57.1497 3.12354 56.8232C2.41292 56.4967 1.85596 56.0934 1.45264 55.6133C1.04932 55.1523 0.770833 54.6434 0.617188 54.0864C0.463542 53.5295 0.386719 53.0205 0.386719 52.5596C0.386719 51.9834 0.530762 51.3496 0.818848 50.6582C1.08773 49.9476 1.51025 49.2274 2.08643 48.4976C2.6626 47.7677 3.39242 47.0571 4.27588 46.3657C5.15934 45.6551 6.19645 44.9925 7.38721 44.3779C9.23096 43.4368 11.0651 42.5918 12.8896 41.8428C14.7142 41.0938 16.5195 40.4119 18.3057 39.7974C20.111 39.1636 21.8971 38.5778 23.6641 38.04C25.431 37.5023 27.1979 36.9741 28.9648 36.4556C29.9059 34.8039 30.7702 33.133 31.5576 31.4429C32.3643 29.7336 33.0557 28.0723 33.6318 26.459C34.2272 24.8457 34.6882 23.3092 35.0146 21.8496C35.3604 20.3708 35.5332 19.0264 35.5332 17.8164C35.5332 16.8945 35.3796 16.0495 35.0723 15.2812C34.7842 14.513 34.3617 13.86 33.8047 13.3223C33.2669 12.7653 32.6043 12.3332 31.8169 12.0259C31.0295 11.7186 30.146 11.5649 29.1665 11.5649C27.3612 11.5649 25.6326 11.7858 23.981 12.2275C22.3485 12.6501 20.8216 13.2262 19.4004 13.9561C17.9792 14.6859 16.6924 15.5405 15.54 16.52C14.4069 17.4995 13.4274 18.5366 12.6016 19.6313C11.7949 20.7261 11.1707 21.8496 10.729 23.002C10.2873 24.1351 10.0664 25.2394 10.0664 26.3149C10.0664 27.3905 10.2873 28.2835 10.729 28.9941C11.1899 29.6855 11.7661 30.2425 12.4575 30.665C13.1489 31.0684 13.8883 31.3564 14.6758 31.5293C15.4824 31.6829 16.2314 31.7598 16.9229 31.7598C17.7103 31.7598 18.4593 31.6925 19.1699 31.5581C19.8997 31.4237 20.5335 31.2796 21.0713 31.126C21.6283 30.9723 22.07 30.8283 22.3965 30.6938C22.7422 30.5402 22.915 30.4634 22.915 30.4634L23.5488 31.8462C23.4528 31.9038 23.1743 32.019 22.7134 32.1919C22.2716 32.3455 21.6859 32.5184 20.9561 32.7104C20.2262 32.9025 19.3716 33.0754 18.3921 33.229C17.4318 33.3634 16.3851 33.4307 15.252 33.4307C14.0804 33.4307 12.9665 33.2962 11.9102 33.0273C10.873 32.7585 9.96077 32.3359 9.17334 31.7598C8.40511 31.1836 7.79053 30.4442 7.32959 29.5415C6.88786 28.6196 6.66699 27.5057 6.66699 26.1997C6.66699 24.7209 7.00309 23.2996 7.67529 21.936C8.3667 20.5724 9.28857 19.2952 10.4409 18.1045C11.5933 16.8945 12.9185 15.7998 14.4165 14.8203C15.9338 13.8408 17.5182 12.9958 19.1699 12.2852C20.8408 11.5745 22.5213 11.0272 24.2114 10.6431C25.9207 10.259 27.5436 10.0669 29.0801 10.0669C30.4821 10.0669 31.7593 10.259 32.9116 10.6431C34.0832 11.0272 35.0915 11.6034 35.9365 12.3716C36.7816 13.1206 37.4346 14.0617 37.8955 15.1948C38.3757 16.328 38.6157 17.6436 38.6157 19.1416C38.6157 20.4092 38.4621 21.7632 38.1548 23.2036C37.8475 24.644 37.4442 26.0749 36.9448 27.4961C36.4455 28.9173 35.8789 30.2905 35.2451 31.6157C34.6113 32.9409 33.9583 34.1317 33.2861 35.188C35.4372 34.5542 37.5594 33.8916 39.6528 33.2002C41.7463 32.4896 43.8589 31.6733 45.9907 30.7515C48.1226 26.603 50.1488 23.194 52.0693 20.5244C53.9899 17.8356 55.7664 15.723 57.3989 14.1865C59.0506 12.6309 60.5487 11.5553 61.8931 10.96C63.2375 10.3646 64.3994 10.0669 65.3789 10.0669C66.512 10.0669 67.3955 10.3742 68.0293 10.9888C68.6631 11.6034 68.98 12.458 68.98 13.5527C68.98 14.8011 68.5094 16.1359 67.5684 17.5571C66.6465 18.9591 65.3885 20.3228 63.7944 21.6479C61.4129 23.6261 59.0506 25.3547 56.7075 26.8335C54.3644 28.3123 52.0021 29.6279 49.6206 30.7803C48.5259 33.1042 47.6232 35.1976 46.9126 37.0605C46.202 38.9235 45.6354 40.5944 45.2129 42.0732C44.8096 43.5521 44.5215 44.8677 44.3486 46.02C44.1758 47.1724 44.0894 48.1903 44.0894 49.0737C44.0894 50.1877 44.243 51.1576 44.5503 51.9834C44.8576 52.79 45.2801 53.4622 45.8179 54C46.3748 54.5378 47.0278 54.9315 47.7769 55.1812C48.5259 55.45 49.3517 55.5845 50.2544 55.5845C51.4451 55.5845 52.5687 55.3252 53.625 54.8066C54.7005 54.3073 55.6416 53.6159 56.4482 52.7324C57.2549 51.849 57.8887 50.8215 58.3496 49.6499C58.8298 48.4591 59.0698 47.1916 59.0698 45.8472C59.0698 44.6948 58.9258 43.7153 58.6377 42.9087C58.3688 42.1021 58.0135 41.4395 57.5718 40.9209C57.1493 40.3831 56.6787 39.9702 56.1602 39.6821C55.6416 39.3748 55.1519 39.154 54.6909 39.0195C54.2492 38.8659 53.8555 38.7795 53.5098 38.7603C53.1833 38.7218 52.9816 38.7026 52.9048 38.7026L52.9624 37.2046ZM7.18555 55.2676C8.76042 55.2676 10.4313 54.8451 12.1982 54C13.9652 53.1549 15.7417 51.993 17.5278 50.5142C19.3332 49.0161 21.1001 47.2492 22.8286 45.2134C24.5763 43.1776 26.1992 40.9689 27.6973 38.5874L25.9111 39.106C24.682 39.4709 23.2896 39.9222 21.7339 40.46C20.1782 40.9785 18.5938 41.5739 16.9805 42.2461C15.3672 42.9183 13.7827 43.6577 12.2271 44.4644C10.6906 45.2518 9.31738 46.0968 8.10742 46.9995C6.91667 47.9022 5.95638 48.8625 5.22656 49.8804C4.49674 50.8791 4.13184 51.9258 4.13184 53.0205C4.13184 53.7503 4.41032 54.3073 4.96729 54.6914C5.54346 55.0755 6.28288 55.2676 7.18555 55.2676ZM50.6865 28.5332C52.7031 27.4961 54.7197 26.3245 56.7363 25.0186C58.7529 23.6934 60.7983 22.1761 62.8726 20.4668C63.7176 19.7754 64.4282 19.0936 65.0044 18.4214C65.5998 17.7492 66.0799 17.1154 66.4448 16.52C66.8097 15.9246 67.069 15.3773 67.2227 14.8779C67.3955 14.3594 67.4819 13.908 67.4819 13.5239C67.4819 12.967 67.3091 12.4964 66.9634 12.1123C66.6369 11.7282 66.1087 11.5361 65.3789 11.5361C64.5915 11.5361 63.7752 11.7666 62.9302 12.2275C62.1043 12.6693 61.2593 13.2935 60.395 14.1001C59.5308 14.8875 58.6665 15.8286 57.8022 16.9233C56.9572 17.9989 56.1217 19.1704 55.2959 20.438C54.4701 21.6864 53.6634 23.002 52.876 24.3848C52.1077 25.7676 51.3779 27.1504 50.6865 28.5332Z" fill="#E0E4E6"/>
</svg>
